<mxfile host="app.diagrams.net" modified="2023-12-06T09:33:07.142Z" agent="Mozilla/5.0 (Windows NT 10.0; Win64; x64) AppleWebKit/537.36 (KHTML, like Gecko) Chrome/119.0.0.0 Safari/537.36 Edg/119.0.0.0" etag="JJrVnNKG9vNMa3sKjZFg" version="22.1.5" type="device">
  <diagram name="Page-1" id="4G00VQ4MGJVLfBBqyo9P">
    <mxGraphModel dx="2435" dy="860" grid="1" gridSize="10" guides="1" tooltips="1" connect="1" arrows="1" fold="1" page="1" pageScale="1" pageWidth="850" pageHeight="1100" math="0" shadow="0">
      <root>
        <mxCell id="0" />
        <mxCell id="1" parent="0" />
        <mxCell id="Zh9LmNjPD962JovYhIG--1" value="Người dùng" style="swimlane;whiteSpace=wrap;html=1;strokeColor=#000000;" vertex="1" parent="1">
          <mxGeometry x="-105" y="10" width="446" height="670" as="geometry" />
        </mxCell>
        <mxCell id="Zh9LmNjPD962JovYhIG--2" value="" style="edgeStyle=orthogonalEdgeStyle;rounded=0;orthogonalLoop=1;jettySize=auto;html=1;strokeColor=#FF0000;" edge="1" parent="Zh9LmNjPD962JovYhIG--1" source="Zh9LmNjPD962JovYhIG--3" target="Zh9LmNjPD962JovYhIG--5">
          <mxGeometry relative="1" as="geometry" />
        </mxCell>
        <mxCell id="Zh9LmNjPD962JovYhIG--3" value="0" style="ellipse;html=1;shape=startState;fillColor=#000000;strokeColor=#FF0000;" vertex="1" parent="Zh9LmNjPD962JovYhIG--1">
          <mxGeometry x="229" y="28" width="30" height="30" as="geometry" />
        </mxCell>
        <mxCell id="Zh9LmNjPD962JovYhIG--4" value="" style="shape=line;html=1;strokeWidth=6;strokeColor=#FF0000;direction=south;" vertex="1" parent="Zh9LmNjPD962JovYhIG--1">
          <mxGeometry x="21" y="305.5" width="10" height="140" as="geometry" />
        </mxCell>
        <mxCell id="Zh9LmNjPD962JovYhIG--5" value="Chọn quản lí nhà cung cấp" style="rounded=1;whiteSpace=wrap;html=1;arcSize=40;fontColor=#000000;fillColor=#ffffc0;strokeColor=#FF0000;" vertex="1" parent="Zh9LmNjPD962JovYhIG--1">
          <mxGeometry x="184" y="83" width="120" height="40" as="geometry" />
        </mxCell>
        <mxCell id="Zh9LmNjPD962JovYhIG--6" value="" style="edgeStyle=orthogonalEdgeStyle;rounded=0;orthogonalLoop=1;jettySize=auto;html=1;strokeColor=#FF0000;exitX=0;exitY=0.5;exitDx=0;exitDy=0;entryX=0;entryY=0.5;entryDx=0;entryDy=0;entryPerimeter=0;" edge="1" parent="Zh9LmNjPD962JovYhIG--1" source="Zh9LmNjPD962JovYhIG--5" target="Zh9LmNjPD962JovYhIG--4">
          <mxGeometry relative="1" as="geometry">
            <mxPoint x="208" y="177" as="sourcePoint" />
            <mxPoint x="283" y="177" as="targetPoint" />
          </mxGeometry>
        </mxCell>
        <mxCell id="Zh9LmNjPD962JovYhIG--7" value="Nhập thông tin cần sửa" style="rounded=1;whiteSpace=wrap;html=1;arcSize=40;fontColor=#000000;fillColor=#ffffc0;strokeColor=#FF0000;" vertex="1" parent="Zh9LmNjPD962JovYhIG--1">
          <mxGeometry x="236" y="252" width="120" height="40" as="geometry" />
        </mxCell>
        <mxCell id="Zh9LmNjPD962JovYhIG--8" value="Nhập thông tin cần thêm" style="rounded=1;whiteSpace=wrap;html=1;arcSize=40;fontColor=#000000;fillColor=#ffffc0;strokeColor=#FF0000;" vertex="1" parent="Zh9LmNjPD962JovYhIG--1">
          <mxGeometry x="236" y="147" width="120" height="40" as="geometry" />
        </mxCell>
        <mxCell id="Zh9LmNjPD962JovYhIG--9" value="Chọn nhà cung cấp xóa" style="rounded=1;whiteSpace=wrap;html=1;arcSize=40;fontColor=#000000;fillColor=#ffffc0;strokeColor=#FF0000;" vertex="1" parent="Zh9LmNjPD962JovYhIG--1">
          <mxGeometry x="236" y="489" width="120" height="40" as="geometry" />
        </mxCell>
        <mxCell id="Zh9LmNjPD962JovYhIG--11" value="Hệ thống" style="swimlane;whiteSpace=wrap;html=1;strokeColor=#000000;" vertex="1" parent="1">
          <mxGeometry x="342" y="10" width="726" height="670" as="geometry">
            <mxRectangle x="420" y="10" width="90" height="30" as="alternateBounds" />
          </mxGeometry>
        </mxCell>
        <mxCell id="Zh9LmNjPD962JovYhIG--12" value="Hợp lệ" style="text;html=1;align=center;verticalAlign=middle;resizable=0;points=[];autosize=1;strokeColor=none;fillColor=none;" vertex="1" parent="Zh9LmNjPD962JovYhIG--11">
          <mxGeometry x="105.7" y="141" width="54" height="26" as="geometry" />
        </mxCell>
        <mxCell id="Zh9LmNjPD962JovYhIG--13" value="Thêm nhà cung cấp" style="rounded=1;whiteSpace=wrap;html=1;arcSize=40;fontColor=#000000;fillColor=#ffffc0;strokeColor=#FF0000;" vertex="1" parent="Zh9LmNjPD962JovYhIG--11">
          <mxGeometry x="-368.8" y="147" width="120" height="40" as="geometry" />
        </mxCell>
        <mxCell id="Zh9LmNjPD962JovYhIG--14" value="Sửa nhà cung cấp" style="rounded=1;whiteSpace=wrap;html=1;arcSize=40;fontColor=#000000;fillColor=#ffffc0;strokeColor=#FF0000;" vertex="1" parent="Zh9LmNjPD962JovYhIG--11">
          <mxGeometry x="-372.8" y="252" width="120" height="40" as="geometry" />
        </mxCell>
        <mxCell id="Zh9LmNjPD962JovYhIG--15" value="Xóa nhà cung cấp" style="rounded=1;whiteSpace=wrap;html=1;arcSize=40;fontColor=#000000;fillColor=#ffffc0;strokeColor=#FF0000;" vertex="1" parent="Zh9LmNjPD962JovYhIG--11">
          <mxGeometry x="-372.8" y="489" width="120" height="40" as="geometry" />
        </mxCell>
        <mxCell id="Zh9LmNjPD962JovYhIG--17" value="Xem thông tin" style="rounded=1;whiteSpace=wrap;html=1;arcSize=40;fontColor=#000000;fillColor=#ffffc0;strokeColor=#FF0000;" vertex="1" parent="Zh9LmNjPD962JovYhIG--11">
          <mxGeometry x="-365.8" y="379" width="120" height="40" as="geometry" />
        </mxCell>
        <mxCell id="Zh9LmNjPD962JovYhIG--18" value="" style="endArrow=none;html=1;rounded=0;strokeColor=#FF0000;" edge="1" parent="Zh9LmNjPD962JovYhIG--11">
          <mxGeometry width="50" height="50" relative="1" as="geometry">
            <mxPoint x="-389" y="510" as="sourcePoint" />
            <mxPoint x="-388.8" y="167" as="targetPoint" />
          </mxGeometry>
        </mxCell>
        <mxCell id="Zh9LmNjPD962JovYhIG--19" value="Hủy" style="edgeStyle=orthogonalEdgeStyle;html=1;align=left;verticalAlign=top;endArrow=classic;endSize=8;strokeColor=#FF0000;rounded=0;endFill=1;exitX=0.5;exitY=1;exitDx=0;exitDy=0;" edge="1" parent="Zh9LmNjPD962JovYhIG--11" source="Zh9LmNjPD962JovYhIG--41">
          <mxGeometry x="-0.9399" y="13" relative="1" as="geometry">
            <mxPoint x="695.3" y="577" as="targetPoint" />
            <Array as="points">
              <mxPoint x="73" y="577" />
            </Array>
            <mxPoint x="11.00000000000027" y="529" as="sourcePoint" />
            <mxPoint as="offset" />
          </mxGeometry>
        </mxCell>
        <mxCell id="Zh9LmNjPD962JovYhIG--20" value="" style="edgeStyle=orthogonalEdgeStyle;rounded=0;orthogonalLoop=1;jettySize=auto;html=1;strokeColor=#FF0000;" edge="1" parent="Zh9LmNjPD962JovYhIG--11" source="Zh9LmNjPD962JovYhIG--21">
          <mxGeometry relative="1" as="geometry">
            <mxPoint x="192" y="167" as="targetPoint" />
            <Array as="points">
              <mxPoint x="150" y="167" />
            </Array>
          </mxGeometry>
        </mxCell>
        <mxCell id="Zh9LmNjPD962JovYhIG--21" value="Kiểm tra&amp;nbsp;định dạng thông tin" style="rhombus;whiteSpace=wrap;html=1;fontColor=#000000;fillColor=#ffffc0;strokeColor=#FF0000;" vertex="1" parent="Zh9LmNjPD962JovYhIG--11">
          <mxGeometry x="29.7" y="147" width="80" height="40" as="geometry" />
        </mxCell>
        <mxCell id="Zh9LmNjPD962JovYhIG--22" value="" style="edgeStyle=orthogonalEdgeStyle;rounded=0;orthogonalLoop=1;jettySize=auto;html=1;strokeColor=#FF0000;entryX=0;entryY=0.5;entryDx=0;entryDy=0;exitX=1;exitY=0.5;exitDx=0;exitDy=0;" edge="1" parent="Zh9LmNjPD962JovYhIG--11" source="Zh9LmNjPD962JovYhIG--23" target="Zh9LmNjPD962JovYhIG--48">
          <mxGeometry relative="1" as="geometry" />
        </mxCell>
        <mxCell id="Zh9LmNjPD962JovYhIG--23" value="Lưu thông tin vào CSDL" style="rounded=1;whiteSpace=wrap;html=1;arcSize=40;fontColor=#000000;fillColor=#ffffc0;strokeColor=#FF0000;" vertex="1" parent="Zh9LmNjPD962JovYhIG--11">
          <mxGeometry x="346" y="147" width="120" height="40" as="geometry" />
        </mxCell>
        <mxCell id="Zh9LmNjPD962JovYhIG--24" value="" style="edgeStyle=orthogonalEdgeStyle;rounded=0;orthogonalLoop=1;jettySize=auto;html=1;strokeColor=#FF0000;" edge="1" parent="Zh9LmNjPD962JovYhIG--11" source="Zh9LmNjPD962JovYhIG--25" target="Zh9LmNjPD962JovYhIG--27">
          <mxGeometry relative="1" as="geometry" />
        </mxCell>
        <mxCell id="Zh9LmNjPD962JovYhIG--25" value="Truy xuất dữ liệu nhà cung cấp trong CSDL" style="rounded=1;whiteSpace=wrap;html=1;arcSize=40;fontColor=#000000;fillColor=#ffffc0;strokeColor=#FF0000;" vertex="1" parent="Zh9LmNjPD962JovYhIG--11">
          <mxGeometry x="15.2" y="379" width="120" height="40" as="geometry" />
        </mxCell>
        <mxCell id="Zh9LmNjPD962JovYhIG--26" style="edgeStyle=orthogonalEdgeStyle;rounded=0;orthogonalLoop=1;jettySize=auto;html=1;exitX=1;exitY=0.5;exitDx=0;exitDy=0;strokeColor=#FF0000;" edge="1" parent="Zh9LmNjPD962JovYhIG--11">
          <mxGeometry relative="1" as="geometry">
            <mxPoint x="693.3" y="399" as="targetPoint" />
            <mxPoint x="410.3" y="399" as="sourcePoint" />
          </mxGeometry>
        </mxCell>
        <mxCell id="Zh9LmNjPD962JovYhIG--27" value="Hiện thông tin ra màn hình" style="rounded=1;whiteSpace=wrap;html=1;arcSize=40;fontColor=#000000;fillColor=#ffffc0;strokeColor=#FF0000;" vertex="1" parent="Zh9LmNjPD962JovYhIG--11">
          <mxGeometry x="354" y="379" width="118" height="40" as="geometry" />
        </mxCell>
        <mxCell id="Zh9LmNjPD962JovYhIG--28" value="" style="ellipse;html=1;shape=endState;fillColor=#000000;strokeColor=#FF0000;" vertex="1" parent="Zh9LmNjPD962JovYhIG--11">
          <mxGeometry x="681" y="622" width="30" height="30" as="geometry" />
        </mxCell>
        <mxCell id="Zh9LmNjPD962JovYhIG--29" value="" style="edgeStyle=orthogonalEdgeStyle;rounded=0;orthogonalLoop=1;jettySize=auto;html=1;strokeColor=#FF0000;" edge="1" parent="Zh9LmNjPD962JovYhIG--11" source="Zh9LmNjPD962JovYhIG--30" target="Zh9LmNjPD962JovYhIG--32">
          <mxGeometry relative="1" as="geometry" />
        </mxCell>
        <mxCell id="Zh9LmNjPD962JovYhIG--30" value="Cập nhật thông tin vào CSDL" style="rounded=1;whiteSpace=wrap;html=1;arcSize=40;fontColor=#000000;fillColor=#ffffc0;strokeColor=#FF0000;" vertex="1" parent="Zh9LmNjPD962JovYhIG--11">
          <mxGeometry x="350" y="253" width="120" height="40" as="geometry" />
        </mxCell>
        <mxCell id="Zh9LmNjPD962JovYhIG--31" style="edgeStyle=orthogonalEdgeStyle;rounded=0;orthogonalLoop=1;jettySize=auto;html=1;exitX=1;exitY=0.5;exitDx=0;exitDy=0;strokeColor=#FF0000;" edge="1" parent="Zh9LmNjPD962JovYhIG--11" source="Zh9LmNjPD962JovYhIG--32">
          <mxGeometry relative="1" as="geometry">
            <mxPoint x="696.0999267578125" y="273" as="targetPoint" />
            <mxPoint x="579.3" y="273" as="sourcePoint" />
          </mxGeometry>
        </mxCell>
        <mxCell id="Zh9LmNjPD962JovYhIG--32" value="Hiện thông báo thành công ra màn hình" style="rounded=1;whiteSpace=wrap;html=1;arcSize=40;fontColor=#000000;fillColor=#ffffc0;strokeColor=#FF0000;" vertex="1" parent="Zh9LmNjPD962JovYhIG--11">
          <mxGeometry x="522" y="253" width="119" height="40" as="geometry" />
        </mxCell>
        <mxCell id="Zh9LmNjPD962JovYhIG--33" style="edgeStyle=orthogonalEdgeStyle;rounded=0;orthogonalLoop=1;jettySize=auto;html=1;exitX=1;exitY=0.5;exitDx=0;exitDy=0;strokeColor=#FF0000;" edge="1" parent="Zh9LmNjPD962JovYhIG--11">
          <mxGeometry relative="1" as="geometry">
            <mxPoint x="693.7000244140625" y="510" as="targetPoint" />
            <mxPoint x="585.3" y="510" as="sourcePoint" />
          </mxGeometry>
        </mxCell>
        <mxCell id="Zh9LmNjPD962JovYhIG--34" value="Hiện thông báo thành công ra màn hình" style="rounded=1;whiteSpace=wrap;html=1;arcSize=40;fontColor=#000000;fillColor=#ffffc0;strokeColor=#FF0000;" vertex="1" parent="Zh9LmNjPD962JovYhIG--11">
          <mxGeometry x="527" y="490" width="120" height="40" as="geometry" />
        </mxCell>
        <mxCell id="Zh9LmNjPD962JovYhIG--35" value="" style="edgeStyle=orthogonalEdgeStyle;rounded=0;orthogonalLoop=1;jettySize=auto;html=1;strokeColor=#FF0000;" edge="1" parent="Zh9LmNjPD962JovYhIG--11" source="Zh9LmNjPD962JovYhIG--36" target="Zh9LmNjPD962JovYhIG--34">
          <mxGeometry relative="1" as="geometry" />
        </mxCell>
        <mxCell id="Zh9LmNjPD962JovYhIG--36" value="Thực hiện xóa nhà cung cấp trong CSDL" style="rounded=1;whiteSpace=wrap;html=1;arcSize=40;fontColor=#000000;fillColor=#ffffc0;strokeColor=#FF0000;" vertex="1" parent="Zh9LmNjPD962JovYhIG--11">
          <mxGeometry x="354" y="490" width="120" height="40" as="geometry" />
        </mxCell>
        <mxCell id="Zh9LmNjPD962JovYhIG--39" value="Kiểm tra&amp;nbsp;định dạng thông tin" style="rhombus;whiteSpace=wrap;html=1;fontColor=#000000;fillColor=#ffffc0;strokeColor=#FF0000;" vertex="1" parent="Zh9LmNjPD962JovYhIG--11">
          <mxGeometry x="32.7" y="252" width="80" height="40" as="geometry" />
        </mxCell>
        <mxCell id="Zh9LmNjPD962JovYhIG--40" value="" style="edgeStyle=orthogonalEdgeStyle;rounded=0;orthogonalLoop=1;jettySize=auto;html=1;strokeColor=#FF0000;entryX=0;entryY=0.5;entryDx=0;entryDy=0;" edge="1" parent="Zh9LmNjPD962JovYhIG--11" source="Zh9LmNjPD962JovYhIG--41" target="Zh9LmNjPD962JovYhIG--64">
          <mxGeometry relative="1" as="geometry" />
        </mxCell>
        <mxCell id="Zh9LmNjPD962JovYhIG--41" value="Xác nhận xóa" style="rhombus;whiteSpace=wrap;html=1;fontColor=#000000;fillColor=#ffffc0;strokeColor=#FF0000;" vertex="1" parent="Zh9LmNjPD962JovYhIG--11">
          <mxGeometry x="32.7" y="489" width="80" height="40" as="geometry" />
        </mxCell>
        <mxCell id="Zh9LmNjPD962JovYhIG--42" value="Xóa" style="text;html=1;align=center;verticalAlign=middle;resizable=0;points=[];autosize=1;strokeColor=none;fillColor=none;" vertex="1" parent="Zh9LmNjPD962JovYhIG--11">
          <mxGeometry x="112.7" y="486" width="39" height="26" as="geometry" />
        </mxCell>
        <mxCell id="Zh9LmNjPD962JovYhIG--47" style="edgeStyle=orthogonalEdgeStyle;rounded=0;orthogonalLoop=1;jettySize=auto;html=1;exitX=1;exitY=0.5;exitDx=0;exitDy=0;strokeColor=#FF0000;" edge="1" parent="Zh9LmNjPD962JovYhIG--11" source="Zh9LmNjPD962JovYhIG--48">
          <mxGeometry relative="1" as="geometry">
            <mxPoint x="580.3" y="166.9999999999999" as="sourcePoint" />
            <mxPoint x="696" y="624" as="targetPoint" />
          </mxGeometry>
        </mxCell>
        <mxCell id="Zh9LmNjPD962JovYhIG--48" value="Hiện thông báo thành công ra màn hình" style="rounded=1;whiteSpace=wrap;html=1;arcSize=40;fontColor=#000000;fillColor=#ffffc0;strokeColor=#FF0000;" vertex="1" parent="Zh9LmNjPD962JovYhIG--11">
          <mxGeometry x="518" y="147" width="124" height="40" as="geometry" />
        </mxCell>
        <mxCell id="Zh9LmNjPD962JovYhIG--50" value="" style="endArrow=none;html=1;rounded=0;strokeColor=#FF0000;" edge="1" parent="Zh9LmNjPD962JovYhIG--11">
          <mxGeometry width="50" height="50" relative="1" as="geometry">
            <mxPoint x="-388" y="401" as="sourcePoint" />
            <mxPoint x="-387.8" y="401" as="targetPoint" />
          </mxGeometry>
        </mxCell>
        <mxCell id="Zh9LmNjPD962JovYhIG--51" value="" style="endArrow=classic;html=1;rounded=0;entryX=0;entryY=0.5;entryDx=0;entryDy=0;strokeColor=#FF0000;" edge="1" parent="Zh9LmNjPD962JovYhIG--11" target="Zh9LmNjPD962JovYhIG--13">
          <mxGeometry width="50" height="50" relative="1" as="geometry">
            <mxPoint x="-387.8" y="167" as="sourcePoint" />
            <mxPoint x="-71.80000000000001" y="357" as="targetPoint" />
          </mxGeometry>
        </mxCell>
        <mxCell id="Zh9LmNjPD962JovYhIG--52" value="" style="endArrow=classic;html=1;rounded=0;entryX=0;entryY=0.5;entryDx=0;entryDy=0;strokeColor=#FF0000;" edge="1" parent="Zh9LmNjPD962JovYhIG--11">
          <mxGeometry width="50" height="50" relative="1" as="geometry">
            <mxPoint x="-389.8" y="273" as="sourcePoint" />
            <mxPoint x="-370.8" y="273" as="targetPoint" />
          </mxGeometry>
        </mxCell>
        <mxCell id="Zh9LmNjPD962JovYhIG--53" value="" style="endArrow=classic;html=1;rounded=0;entryX=0;entryY=0.5;entryDx=0;entryDy=0;strokeColor=#FF0000;" edge="1" parent="Zh9LmNjPD962JovYhIG--11">
          <mxGeometry width="50" height="50" relative="1" as="geometry">
            <mxPoint x="-386.8" y="401" as="sourcePoint" />
            <mxPoint x="-367.8" y="401" as="targetPoint" />
          </mxGeometry>
        </mxCell>
        <mxCell id="Zh9LmNjPD962JovYhIG--54" value="" style="endArrow=classic;html=1;rounded=0;entryX=0;entryY=0.5;entryDx=0;entryDy=0;strokeColor=#FF0000;" edge="1" parent="Zh9LmNjPD962JovYhIG--11">
          <mxGeometry width="50" height="50" relative="1" as="geometry">
            <mxPoint x="-388.8" y="511" as="sourcePoint" />
            <mxPoint x="-369.8" y="511" as="targetPoint" />
          </mxGeometry>
        </mxCell>
        <mxCell id="Zh9LmNjPD962JovYhIG--56" value="hợp lệ" style="text;html=1;align=center;verticalAlign=middle;resizable=0;points=[];autosize=1;strokeColor=none;fillColor=none;" vertex="1" parent="Zh9LmNjPD962JovYhIG--11">
          <mxGeometry x="108.19999999999999" y="243" width="52" height="26" as="geometry" />
        </mxCell>
        <mxCell id="Zh9LmNjPD962JovYhIG--57" value="Kiểm tra thông tin" style="rhombus;whiteSpace=wrap;html=1;fontColor=#000000;fillColor=#ffffc0;strokeColor=#FF0000;" vertex="1" parent="Zh9LmNjPD962JovYhIG--11">
          <mxGeometry x="190" y="147" width="80" height="40" as="geometry" />
        </mxCell>
        <mxCell id="Zh9LmNjPD962JovYhIG--58" value="" style="edgeStyle=orthogonalEdgeStyle;rounded=0;orthogonalLoop=1;jettySize=auto;html=1;strokeColor=#FF0000;exitX=1;exitY=0.5;exitDx=0;exitDy=0;entryX=0;entryY=0.5;entryDx=0;entryDy=0;" edge="1" parent="Zh9LmNjPD962JovYhIG--11" source="Zh9LmNjPD962JovYhIG--57" target="Zh9LmNjPD962JovYhIG--23">
          <mxGeometry relative="1" as="geometry">
            <mxPoint x="268" y="166.41" as="sourcePoint" />
            <mxPoint x="350" y="166.41" as="targetPoint" />
            <Array as="points">
              <mxPoint x="308" y="167" />
            </Array>
          </mxGeometry>
        </mxCell>
        <mxCell id="Zh9LmNjPD962JovYhIG--59" value="Hợp lệ" style="text;html=1;align=center;verticalAlign=middle;resizable=0;points=[];autosize=1;strokeColor=none;fillColor=none;" vertex="1" parent="Zh9LmNjPD962JovYhIG--11">
          <mxGeometry x="270" y="147" width="54" height="26" as="geometry" />
        </mxCell>
        <mxCell id="Zh9LmNjPD962JovYhIG--60" value="" style="edgeStyle=orthogonalEdgeStyle;rounded=0;orthogonalLoop=1;jettySize=auto;html=1;strokeColor=#FF0000;" edge="1" parent="Zh9LmNjPD962JovYhIG--11">
          <mxGeometry relative="1" as="geometry">
            <mxPoint x="114" y="272" as="sourcePoint" />
            <mxPoint x="196" y="272" as="targetPoint" />
            <Array as="points">
              <mxPoint x="154" y="272" />
            </Array>
          </mxGeometry>
        </mxCell>
        <mxCell id="Zh9LmNjPD962JovYhIG--61" value="Hợp lệ" style="text;html=1;align=center;verticalAlign=middle;resizable=0;points=[];autosize=1;strokeColor=none;fillColor=none;" vertex="1" parent="Zh9LmNjPD962JovYhIG--11">
          <mxGeometry x="274" y="252" width="54" height="26" as="geometry" />
        </mxCell>
        <mxCell id="Zh9LmNjPD962JovYhIG--62" value="Kiểm tra thông tin" style="rhombus;whiteSpace=wrap;html=1;fontColor=#000000;fillColor=#ffffc0;strokeColor=#FF0000;" vertex="1" parent="Zh9LmNjPD962JovYhIG--11">
          <mxGeometry x="194" y="252" width="80" height="40" as="geometry" />
        </mxCell>
        <mxCell id="Zh9LmNjPD962JovYhIG--63" value="" style="edgeStyle=orthogonalEdgeStyle;rounded=0;orthogonalLoop=1;jettySize=auto;html=1;strokeColor=#FF0000;exitX=1;exitY=0.5;exitDx=0;exitDy=0;entryX=0;entryY=0.5;entryDx=0;entryDy=0;" edge="1" parent="Zh9LmNjPD962JovYhIG--11" source="Zh9LmNjPD962JovYhIG--62">
          <mxGeometry relative="1" as="geometry">
            <mxPoint x="272" y="271.40999999999997" as="sourcePoint" />
            <mxPoint x="350" y="272" as="targetPoint" />
            <Array as="points">
              <mxPoint x="312" y="272" />
            </Array>
          </mxGeometry>
        </mxCell>
        <mxCell id="Zh9LmNjPD962JovYhIG--64" value="Kiểm tra thông tin" style="rhombus;whiteSpace=wrap;html=1;fontColor=#000000;fillColor=#ffffc0;strokeColor=#FF0000;" vertex="1" parent="Zh9LmNjPD962JovYhIG--11">
          <mxGeometry x="198" y="489" width="80" height="40" as="geometry" />
        </mxCell>
        <mxCell id="Zh9LmNjPD962JovYhIG--65" value="Hợp lệ" style="text;html=1;align=center;verticalAlign=middle;resizable=0;points=[];autosize=1;strokeColor=none;fillColor=none;" vertex="1" parent="Zh9LmNjPD962JovYhIG--11">
          <mxGeometry x="278" y="489" width="54" height="26" as="geometry" />
        </mxCell>
        <mxCell id="Zh9LmNjPD962JovYhIG--66" value="" style="edgeStyle=orthogonalEdgeStyle;rounded=0;orthogonalLoop=1;jettySize=auto;html=1;strokeColor=#FF0000;exitX=1;exitY=0.5;exitDx=0;exitDy=0;entryX=0;entryY=0.5;entryDx=0;entryDy=0;" edge="1" parent="Zh9LmNjPD962JovYhIG--11" source="Zh9LmNjPD962JovYhIG--64">
          <mxGeometry relative="1" as="geometry">
            <mxPoint x="276" y="508.40999999999997" as="sourcePoint" />
            <mxPoint x="354" y="509" as="targetPoint" />
            <Array as="points">
              <mxPoint x="316" y="509" />
            </Array>
          </mxGeometry>
        </mxCell>
        <mxCell id="Zh9LmNjPD962JovYhIG--67" value="Hiện thông báo thất bại ra màn hình" style="rounded=1;whiteSpace=wrap;html=1;arcSize=40;fontColor=#000000;fillColor=#ffffc0;strokeColor=#FF0000;" vertex="1" parent="Zh9LmNjPD962JovYhIG--11">
          <mxGeometry x="518" y="201" width="124" height="40" as="geometry" />
        </mxCell>
        <mxCell id="Zh9LmNjPD962JovYhIG--68" value="Không hợp lệ" style="text;html=1;align=center;verticalAlign=middle;resizable=0;points=[];autosize=1;strokeColor=none;fillColor=none;" vertex="1" parent="Zh9LmNjPD962JovYhIG--11">
          <mxGeometry x="244" y="194" width="90" height="26" as="geometry" />
        </mxCell>
        <mxCell id="Zh9LmNjPD962JovYhIG--69" value="Không hợp lệ" style="text;html=1;align=center;verticalAlign=middle;resizable=0;points=[];autosize=1;strokeColor=none;fillColor=none;" vertex="1" parent="Zh9LmNjPD962JovYhIG--11">
          <mxGeometry x="256" y="292" width="90" height="26" as="geometry" />
        </mxCell>
        <mxCell id="Zh9LmNjPD962JovYhIG--70" value="" style="edgeStyle=orthogonalEdgeStyle;rounded=0;orthogonalLoop=1;jettySize=auto;html=1;strokeColor=#FF0000;exitX=0.5;exitY=1;exitDx=0;exitDy=0;entryX=0;entryY=0.5;entryDx=0;entryDy=0;" edge="1" parent="Zh9LmNjPD962JovYhIG--11" source="Zh9LmNjPD962JovYhIG--62" target="Zh9LmNjPD962JovYhIG--71">
          <mxGeometry relative="1" as="geometry">
            <mxPoint x="233" y="293" as="sourcePoint" />
            <mxPoint x="515" y="317" as="targetPoint" />
            <Array as="points">
              <mxPoint x="234" y="323" />
              <mxPoint x="515" y="323" />
              <mxPoint x="515" y="324" />
            </Array>
          </mxGeometry>
        </mxCell>
        <mxCell id="Zh9LmNjPD962JovYhIG--71" value="Hiện thông báo thất bại ra màn hình" style="rounded=1;whiteSpace=wrap;html=1;arcSize=40;fontColor=#000000;fillColor=#ffffc0;strokeColor=#FF0000;" vertex="1" parent="Zh9LmNjPD962JovYhIG--11">
          <mxGeometry x="518" y="304" width="124" height="40" as="geometry" />
        </mxCell>
        <mxCell id="Zh9LmNjPD962JovYhIG--72" style="edgeStyle=orthogonalEdgeStyle;rounded=0;orthogonalLoop=1;jettySize=auto;html=1;strokeColor=#FF0000;exitX=1;exitY=0.5;exitDx=0;exitDy=0;" edge="1" parent="Zh9LmNjPD962JovYhIG--11" source="Zh9LmNjPD962JovYhIG--67">
          <mxGeometry relative="1" as="geometry">
            <mxPoint x="697.0999267578125" y="220.44" as="targetPoint" />
            <mxPoint x="644" y="220" as="sourcePoint" />
            <Array as="points">
              <mxPoint x="670" y="221" />
            </Array>
          </mxGeometry>
        </mxCell>
        <mxCell id="Zh9LmNjPD962JovYhIG--73" style="edgeStyle=orthogonalEdgeStyle;rounded=0;orthogonalLoop=1;jettySize=auto;html=1;strokeColor=#FF0000;" edge="1" parent="Zh9LmNjPD962JovYhIG--11">
          <mxGeometry relative="1" as="geometry">
            <mxPoint x="696.3" y="324" as="targetPoint" />
            <mxPoint x="643" y="324" as="sourcePoint" />
          </mxGeometry>
        </mxCell>
        <mxCell id="Zh9LmNjPD962JovYhIG--74" value="" style="edgeStyle=orthogonalEdgeStyle;rounded=0;orthogonalLoop=1;jettySize=auto;html=1;strokeColor=#FF0000;exitX=0.5;exitY=0;exitDx=0;exitDy=0;entryX=0.002;entryY=0.528;entryDx=0;entryDy=0;entryPerimeter=0;" edge="1" parent="Zh9LmNjPD962JovYhIG--11" source="Zh9LmNjPD962JovYhIG--64" target="Zh9LmNjPD962JovYhIG--75">
          <mxGeometry relative="1" as="geometry">
            <mxPoint x="244" y="302" as="sourcePoint" />
            <mxPoint x="532" y="333" as="targetPoint" />
            <Array as="points">
              <mxPoint x="238" y="461" />
            </Array>
          </mxGeometry>
        </mxCell>
        <mxCell id="Zh9LmNjPD962JovYhIG--75" value="Hiện thông báo thất bại ra màn hình" style="rounded=1;whiteSpace=wrap;html=1;arcSize=40;fontColor=#000000;fillColor=#ffffc0;strokeColor=#FF0000;" vertex="1" parent="Zh9LmNjPD962JovYhIG--11">
          <mxGeometry x="527" y="440" width="124" height="40" as="geometry" />
        </mxCell>
        <mxCell id="Zh9LmNjPD962JovYhIG--76" style="edgeStyle=orthogonalEdgeStyle;rounded=0;orthogonalLoop=1;jettySize=auto;html=1;strokeColor=#FF0000;" edge="1" parent="Zh9LmNjPD962JovYhIG--11">
          <mxGeometry relative="1" as="geometry">
            <mxPoint x="696.3" y="462" as="targetPoint" />
            <mxPoint x="652" y="462" as="sourcePoint" />
          </mxGeometry>
        </mxCell>
        <mxCell id="Zh9LmNjPD962JovYhIG--77" value="" style="edgeStyle=orthogonalEdgeStyle;rounded=0;orthogonalLoop=1;jettySize=auto;html=1;strokeColor=#FF0000;entryX=0;entryY=0.5;entryDx=0;entryDy=0;" edge="1" parent="Zh9LmNjPD962JovYhIG--11" source="Zh9LmNjPD962JovYhIG--17" target="Zh9LmNjPD962JovYhIG--25">
          <mxGeometry relative="1" as="geometry">
            <mxPoint x="-211" y="399.0588235294117" as="targetPoint" />
          </mxGeometry>
        </mxCell>
        <mxCell id="Zh9LmNjPD962JovYhIG--78" style="edgeStyle=orthogonalEdgeStyle;rounded=0;orthogonalLoop=1;jettySize=auto;html=1;exitX=0.487;exitY=0.767;exitDx=0;exitDy=0;strokeColor=#FF0000;exitPerimeter=0;" edge="1" parent="1" source="Zh9LmNjPD962JovYhIG--4">
          <mxGeometry relative="1" as="geometry">
            <mxPoint x="298" y="187" as="sourcePoint" />
            <mxPoint x="-46" y="384" as="targetPoint" />
          </mxGeometry>
        </mxCell>
        <mxCell id="Zh9LmNjPD962JovYhIG--79" value="" style="edgeStyle=orthogonalEdgeStyle;rounded=0;orthogonalLoop=1;jettySize=auto;html=1;strokeColor=#FF0000;" edge="1" parent="1" source="Zh9LmNjPD962JovYhIG--14" target="Zh9LmNjPD962JovYhIG--7">
          <mxGeometry relative="1" as="geometry" />
        </mxCell>
        <mxCell id="Zh9LmNjPD962JovYhIG--80" style="edgeStyle=orthogonalEdgeStyle;rounded=0;orthogonalLoop=1;jettySize=auto;html=1;exitX=1;exitY=0.5;exitDx=0;exitDy=0;entryX=0;entryY=0.5;entryDx=0;entryDy=0;strokeColor=#FF0000;" edge="1" parent="1" source="Zh9LmNjPD962JovYhIG--7" target="Zh9LmNjPD962JovYhIG--39">
          <mxGeometry relative="1" as="geometry">
            <mxPoint x="468.2" y="274" as="targetPoint" />
          </mxGeometry>
        </mxCell>
        <mxCell id="Zh9LmNjPD962JovYhIG--81" value="" style="edgeStyle=orthogonalEdgeStyle;rounded=0;orthogonalLoop=1;jettySize=auto;html=1;strokeColor=#FF0000;" edge="1" parent="1" source="Zh9LmNjPD962JovYhIG--13" target="Zh9LmNjPD962JovYhIG--8">
          <mxGeometry relative="1" as="geometry" />
        </mxCell>
        <mxCell id="Zh9LmNjPD962JovYhIG--82" style="edgeStyle=orthogonalEdgeStyle;rounded=0;orthogonalLoop=1;jettySize=auto;html=1;exitX=1;exitY=0.5;exitDx=0;exitDy=0;entryX=0;entryY=0.5;entryDx=0;entryDy=0;strokeColor=#FF0000;" edge="1" parent="1" source="Zh9LmNjPD962JovYhIG--8" target="Zh9LmNjPD962JovYhIG--21">
          <mxGeometry relative="1" as="geometry" />
        </mxCell>
        <mxCell id="Zh9LmNjPD962JovYhIG--83" value="" style="edgeStyle=orthogonalEdgeStyle;rounded=0;orthogonalLoop=1;jettySize=auto;html=1;strokeColor=#FF0000;" edge="1" parent="1" source="Zh9LmNjPD962JovYhIG--15" target="Zh9LmNjPD962JovYhIG--9">
          <mxGeometry relative="1" as="geometry" />
        </mxCell>
        <mxCell id="Zh9LmNjPD962JovYhIG--84" style="edgeStyle=orthogonalEdgeStyle;rounded=0;orthogonalLoop=1;jettySize=auto;html=1;exitX=1;exitY=0.5;exitDx=0;exitDy=0;entryX=0;entryY=0.5;entryDx=0;entryDy=0;strokeColor=#FF0000;" edge="1" parent="1" source="Zh9LmNjPD962JovYhIG--9" target="Zh9LmNjPD962JovYhIG--41">
          <mxGeometry relative="1" as="geometry" />
        </mxCell>
        <mxCell id="Zh9LmNjPD962JovYhIG--87" value="" style="edgeStyle=orthogonalEdgeStyle;rounded=0;orthogonalLoop=1;jettySize=auto;html=1;strokeColor=#FF0000;" edge="1" parent="1" target="Zh9LmNjPD962JovYhIG--67">
          <mxGeometry relative="1" as="geometry">
            <mxPoint x="572" y="198" as="sourcePoint" />
            <mxPoint x="856" y="236" as="targetPoint" />
            <Array as="points">
              <mxPoint x="572" y="229" />
            </Array>
          </mxGeometry>
        </mxCell>
        <mxCell id="Zh9LmNjPD962JovYhIG--88" value="Không hợp lệ" style="edgeStyle=orthogonalEdgeStyle;html=1;align=left;verticalAlign=top;endArrow=classic;endSize=8;strokeColor=#FF0000;rounded=0;entryX=0.5;entryY=1;entryDx=0;entryDy=0;endFill=1;exitX=0.5;exitY=1;exitDx=0;exitDy=0;" edge="1" parent="1" source="Zh9LmNjPD962JovYhIG--21" target="Zh9LmNjPD962JovYhIG--8">
          <mxGeometry x="-0.2192" y="-27" relative="1" as="geometry">
            <mxPoint x="232.2" y="197" as="targetPoint" />
            <Array as="points">
              <mxPoint x="412" y="227" />
              <mxPoint x="191" y="227" />
            </Array>
            <mxPoint x="307.20000000000005" y="171" as="sourcePoint" />
            <mxPoint as="offset" />
          </mxGeometry>
        </mxCell>
        <mxCell id="Zh9LmNjPD962JovYhIG--89" value="Không hợp lệ" style="edgeStyle=orthogonalEdgeStyle;html=1;align=left;verticalAlign=top;endArrow=classic;endSize=8;strokeColor=#FF0000;rounded=0;endFill=1;exitX=0.5;exitY=1;exitDx=0;exitDy=0;entryX=0.5;entryY=1;entryDx=0;entryDy=0;" edge="1" parent="1" source="Zh9LmNjPD962JovYhIG--39" target="Zh9LmNjPD962JovYhIG--7">
          <mxGeometry x="-1" relative="1" as="geometry">
            <mxPoint x="235.2" y="302" as="targetPoint" />
            <Array as="points">
              <mxPoint x="415" y="304" />
              <mxPoint x="415" y="304" />
              <mxPoint x="415" y="332" />
              <mxPoint x="191" y="332" />
            </Array>
            <mxPoint x="263.7" y="290" as="sourcePoint" />
          </mxGeometry>
        </mxCell>
      </root>
    </mxGraphModel>
  </diagram>
</mxfile>
